<svg id="Слой_1" data-name="Слой 1" xmlns="http://www.w3.org/2000/svg" viewBox="0 0 199.33 105.97"><defs><style>.cls-1{fill:#0c529d;}.cls-2{fill:#ca2a2f;}.cls-3{fill:#0c539d;}.cls-4{fill:#1193d5;}.cls-5{fill:#0b0a0a;}.cls-6{fill:#00a1e4;}.cls-7{fill:#d2292f;}</style></defs><polygon class="cls-1" points="113.31 30.61 147.53 30.61 129.75 0 113.31 30.61"/><polygon class="cls-2" points="69.48 0 51.8 30.61 76.89 30.61 81.55 22.72 117.56 22.71 129.75 0 69.48 0"/><polygon class="cls-3" points="114.04 75.36 148.26 75.36 130.48 105.97 114.04 75.36"/><polygon class="cls-4" points="70.21 105.97 52.53 75.36 77.63 75.36 82.28 83.25 118.28 83.27 130.48 105.97 70.21 105.97"/><rect class="cls-5" y="65.03" width="63.41" height="4.56"/><rect class="cls-5" x="66.45" y="65.03" width="60.27" height="4.56"/><rect class="cls-5" x="129.75" y="65.03" width="69.57" height="4.56"/><path class="cls-6" d="M20.12,61a15.93,15.93,0,0,1-6.55,1.17c-7,0-12.25-4.41-12.25-12.54,0-7.75,5.26-13,13-13a13.27,13.27,0,0,1,5.88,1.1l-.77,2.61a11.61,11.61,0,0,0-5-1c-5.81,0-9.67,3.72-9.67,10.22,0,6.07,3.49,10,9.52,10a12.69,12.69,0,0,0,5.22-1Z" transform="translate(0)"/><path class="cls-6" d="M28.28,54l-2.58,7.8H22.39L30.81,37h3.86l8.46,24.79H39.71L37.06,54Zm8.12-2.5L34,44.33c-.56-1.62-.92-3.09-1.29-4.53h-.07c-.37,1.47-.78,3-1.25,4.49l-2.43,7.17Z" transform="translate(0)"/><path class="cls-6" d="M50,37V47.34H62V37h3.23V61.76H62V50.14H50V61.76h-3.2V37Z" transform="translate(0)"/><path class="cls-7" d="M75.45,39.69H67.91V37H86.26v2.72H78.69V61.76H75.45Z" transform="translate(0)"/><path class="cls-7" d="M101.85,50.14H92.22v8.93H103v2.69H89V37h13.39v2.69H92.22v7.83h9.63Z" transform="translate(0)"/><path class="cls-7" d="M120.68,61.76l-3.16-5.48c-1.29-2.1-2.1-3.46-2.87-4.89h-.07c-.7,1.43-1.4,2.75-2.69,4.92l-3,5.45h-3.67l7.57-12.54L105.53,37h3.71l3.28,5.81c.92,1.62,1.61,2.87,2.28,4.19h.11c.7-1.47,1.32-2.61,2.24-4.19L120.53,37h3.68L116.67,49l7.72,12.73Z" transform="translate(0)"/><path class="cls-5" d="M131.27,37V48h1l8.5-11h3.86l-9.38,11.36c4.08.56,5.66,3.06,6.95,6.4a66,66,0,0,0,2.72,7h-3.45a42.56,42.56,0,0,1-2.25-5.85c-1.14-3.27-2.72-5.52-6.91-5.52h-1V61.76h-3.16V37Z" transform="translate(0)"/><path class="cls-5" d="M168.52,49.11c0,8.53-5.19,13-11.51,13-6.55,0-11.14-5.07-11.14-12.58,0-7.86,4.89-13,11.51-13S168.52,41.75,168.52,49.11Zm-19.23.4c0,5.3,2.86,10,7.9,10s7.95-4.67,7.95-10.3c0-4.92-2.58-10.07-7.91-10.07S149.29,44.07,149.29,49.51Z" transform="translate(0)"/><path class="cls-5" d="M193.45,50.87c-.18-3.45-.41-7.61-.37-10.7H193c-.84,2.91-1.87,6-3.12,9.41l-4.38,12H183l-4-11.8c-1.17-3.5-2.17-6.7-2.86-9.64h-.08c-.07,3.09-.26,7.25-.48,11L175,61.76h-3L173.63,37h4.08l4.23,12c1,3,1.87,5.77,2.5,8.35h.11c.63-2.5,1.51-5.22,2.61-8.35l4.41-12h4.09l1.54,24.79h-3.13Z" transform="translate(0)"/></svg>